<svg width="17" height="18" viewBox="0 0 17 18" fill="none" xmlns="http://www.w3.org/2000/svg">
<path d="M16.4532 12.7622C16.4067 12.7254 13.0333 10.2938 12.1074 10.4684C11.6654 10.5465 11.4127 10.848 10.9055 11.4515C10.8239 11.549 10.6278 11.7824 10.4754 11.9485C10.1549 11.8439 9.84224 11.7167 9.53983 11.5677C7.97896 10.8078 6.71783 9.54665 5.95793 7.98578C5.80882 7.68342 5.68156 7.37077 5.57713 7.05022C5.74373 6.89722 5.9772 6.70115 6.07693 6.61728C6.6776 6.11295 6.97963 5.86022 7.05783 5.41708C7.2182 4.49908 4.78833 1.10248 4.76283 1.07188C4.65259 0.91439 4.50871 0.783372 4.34161 0.688309C4.17452 0.593245 3.98838 0.536513 3.79667 0.522217C2.8118 0.522217 0 4.16985 0 4.78412C0 4.81982 0.0515667 8.44875 4.52653 13.0008C9.07403 17.4706 12.7024 17.5222 12.7381 17.5222C13.3529 17.5222 17 14.7104 17 13.7255C16.9859 13.5345 16.9295 13.349 16.8349 13.1824C16.7403 13.0158 16.61 12.8723 16.4532 12.7622Z" fill="#1E2E00"/>
</svg>
