<svg width="107" height="70" viewBox="0 0 107 70" fill="none" xmlns="http://www.w3.org/2000/svg">
<g clip-path="url(#clip0_315_232)">
<path fill-rule="evenodd" clip-rule="evenodd" d="M102.52 61.3707C103.357 61.3707 104.175 61.6175 104.87 62.0799C105.566 62.5423 106.108 63.1996 106.428 63.9686C106.748 64.7375 106.832 65.5837 106.669 66.4C106.506 67.2163 106.103 67.9662 105.511 68.5547C104.92 69.1433 104.166 69.5441 103.345 69.7064C102.525 69.8688 101.674 69.7855 100.901 69.467C100.129 69.1485 99.4679 68.6091 99.0031 67.917C98.5383 67.225 98.2902 66.4113 98.2902 65.579C98.2902 64.4629 98.7358 63.3925 99.5291 62.6033C100.322 61.8141 101.398 61.3707 102.52 61.3707V61.3707ZM7.43297 35.2515C8.26959 35.2515 9.08742 35.4983 9.78305 35.9607C10.4787 36.4231 11.0209 37.0804 11.341 37.8493C11.6612 38.6183 11.7449 39.4645 11.5817 40.2808C11.4185 41.0971 11.0156 41.847 10.4241 42.4355C9.83247 43.0241 9.07875 43.4249 8.25821 43.5872C7.43766 43.7496 6.58714 43.6663 5.8142 43.3478C5.04126 43.0292 4.38062 42.4899 3.91581 41.7978C3.45101 41.1058 3.20293 40.2921 3.20293 39.4598C3.20293 38.3437 3.64859 37.2733 4.44188 36.4841C5.23516 35.6949 6.31109 35.2515 7.43297 35.2515V35.2515ZM95.8383 24.2076H102.502C102.123 26.156 100.807 27.8721 98.9817 29.3536C97.1567 30.835 94.5928 31.5777 91.2941 31.5777C87.8443 31.5777 85.0853 30.5118 83.0172 28.3801C80.9491 26.2484 79.9151 23.4456 79.9151 19.9718C79.9151 17.9391 80.3399 16.0119 81.1897 14.1903C82.0394 12.3687 83.3336 10.8933 85.0724 9.76403C86.8104 8.63459 88.8589 8.06987 91.2179 8.06987C94.1105 8.06987 96.4447 8.79007 98.2203 10.2305C99.9959 11.6709 101.252 13.4572 101.988 15.5894C102.724 17.7214 103.054 19.7897 102.978 21.7942H86.7434C86.6581 27.5619 94.4259 27.1327 95.8383 24.2083V24.2076ZM86.5481 17.8775H96.3438C95.9403 11.376 86.594 11.2871 86.5481 17.8775ZM0 8.95512H2.66999V3.07282H9.68628V8.95512H13.0749V14.6633H9.68628V22.6218C9.68628 25.2781 10.164 25.779 13.0407 25.4585V31.151C13.063 31.151 12.5267 31.1782 11.4317 31.2324C10.3365 31.2874 9.54875 31.3332 9.07002 31.3143C4.06793 31.1024 2.53296 29.1615 2.53296 23.9682V14.6633H0V8.95512V8.95512ZM16.0108 8.95084H23.0018V12.2898C25.2442 8.68121 27.7291 7.96756 30.3436 8.81224L30.3314 14.463C30.3314 14.9969 22.7227 11.9271 23.0018 22.2025V31.0014H16.0108V8.95185V8.95084ZM32.0323 15.6919C32.0323 10.6712 35.563 8.23039 42.6244 8.36949C46.1536 8.45349 48.507 9.14697 49.6845 10.45C50.862 11.7529 51.4505 13.8193 51.4502 16.649V26.76C51.4502 28.403 51.5148 29.154 52.5607 29.6479V30.7942C47.8567 31.9866 45.3293 31.021 44.7743 28.3184C42.8918 30.4258 40.2226 31.5484 37.3274 31.46C35.7038 31.4096 34.2268 30.8567 32.8976 29.8165C31.5683 28.7762 30.9023 27.0919 30.9023 24.7617C30.9023 22.9312 31.5282 21.7111 32.4543 20.6371C33.0579 19.9368 33.8489 19.3884 34.8021 18.9739C37.1309 17.9574 38.5179 18.1708 40.8386 17.5627C42.4597 17.1386 44.0489 16.4434 44.42 15.3601C45.5092 12.1799 37.89 11.248 38.0098 15.6932L32.0323 15.6919ZM44.8448 19.9413C44.1401 20.3742 43.0678 20.7623 41.6279 21.1055C40.188 21.4488 39.146 21.8282 38.502 22.2438C37.8583 22.6589 37.5515 23.4445 37.5818 24.6004C37.6743 26.0452 38.6398 26.84 40.4782 26.9848C41.9193 26.8768 43.0074 26.281 43.7424 25.1974C44.4775 24.1138 44.8453 22.7049 44.846 20.9705V19.9413H44.8448ZM66.1403 13.145C68.8055 13.145 70.9654 16.1186 70.9654 19.7876C70.9654 23.4566 68.8055 26.4312 66.1403 26.4312C63.4752 26.4312 61.3153 23.4561 61.3153 19.7876C61.3153 16.1191 63.4754 13.145 66.1403 13.145ZM70.9654 11.1132C67.8947 7.74278 62.9635 7.21838 59.064 10.0357C56.3963 11.9627 54.8846 15.696 54.8846 19.7183C54.8846 26.1913 59.1732 31.4388 64.4633 31.4388C66.9734 31.4388 69.2579 30.2565 70.9656 28.3234V31.0218H77.678V0H70.9656L70.9654 11.1132Z" fill="#E11B22"/>
<path fill-rule="evenodd" clip-rule="evenodd" d="M3.79724 47.2506H10.7191V69.3699H3.79724V47.2506ZM14.0755 47.2506H20.9973V50.1737C25.8477 44.5021 35.3488 45.5874 35.3305 54.3463V69.3705H28.4087V54.911C28.1638 52.3361 25.2451 51.4186 23.0389 52.2925C20.7339 53.206 20.9968 55.224 20.9968 57.2417V69.3705H14.0755V47.2506ZM48.8006 51.5033C51.4655 51.5033 53.6256 54.4781 53.6256 58.1461C53.6256 61.8141 51.4655 64.7894 48.8006 64.7894C46.1356 64.7894 43.9755 61.8144 43.9755 58.1461C43.9755 54.4778 46.1356 51.5033 48.8006 51.5033ZM53.6256 49.4714C50.5549 46.101 45.6237 45.5769 41.7252 48.3939C39.0578 50.3209 37.5459 54.0542 37.5459 58.0766C37.5459 64.5495 41.8344 69.7971 47.1245 69.7971C49.6347 69.7971 51.9191 68.615 53.6271 66.6817V69.3803H60.3394V38.3572H53.6271V49.4714H53.6256ZM74.1218 54.2278C74.1218 49.2073 77.6525 46.7664 84.7138 46.9054C88.2431 46.9894 90.5965 47.6828 91.7739 48.9856C92.9514 50.2884 93.5399 52.3548 93.5394 55.1847V65.2954C93.5394 66.9385 93.6043 67.6894 94.6501 68.1833V69.3296C89.9459 70.5223 87.4188 69.5564 86.8638 66.8538C84.9813 68.9612 82.3118 70.0836 79.4169 69.9954C77.7933 69.945 76.3163 69.3921 74.987 68.3516C73.6577 67.3112 72.9918 65.6273 72.9918 63.2971C72.9918 61.4669 73.6177 60.2465 74.5435 59.1725C75.1474 58.4722 75.9382 57.9238 76.8913 57.5081C79.2204 56.4915 80.6074 56.7049 82.9279 56.0969C84.5489 55.6728 86.1384 54.9775 86.5095 53.8942C87.5986 50.714 79.9795 49.7821 80.0993 54.2273L74.1218 54.2278ZM86.9342 58.4772C86.2296 58.91 85.1573 59.298 83.7174 59.6412C82.2775 59.9844 81.2355 60.3639 80.5914 60.7797C79.9476 61.1947 79.6407 61.9802 79.671 63.1364C79.7637 64.5811 80.7292 65.3758 82.5674 65.5205C84.0087 65.4128 85.0968 64.817 85.8319 63.7331C86.567 62.6492 86.9348 61.2403 86.9355 59.5064V58.4772H86.9342ZM63.7873 47.2506H70.7091V69.3699H63.7873V47.2506ZM67.2478 38.0702C67.9257 38.0701 68.5883 38.2701 69.1519 38.6447C69.7156 39.0193 70.1549 39.5518 70.4143 40.1749C70.6737 40.7979 70.7416 41.4835 70.6093 42.1449C70.4771 42.8063 70.1506 43.4138 69.6713 43.8906C69.192 44.3675 68.5813 44.6922 67.9165 44.8237C67.2516 44.9552 66.5625 44.8876 65.9363 44.6295C65.3101 44.3714 64.7749 43.9343 64.3983 43.3735C64.0218 42.8128 63.8209 42.1535 63.821 41.4792C63.821 41.0315 63.9096 40.5881 64.0819 40.1745C64.2541 39.7609 64.5066 39.385 64.8248 39.0685C65.143 38.7519 65.5208 38.5008 65.9366 38.3295C66.3524 38.1582 66.7981 38.0701 67.2481 38.0702H67.2478Z" fill="#FFC20E"/>
</g>
<defs>
<clipPath id="clip0_315_232">
<rect width="106.75" height="70" fill="white"/>
</clipPath>
</defs>
</svg>
