<?xml version="1.0" encoding="utf-8"?>
<!-- Generator: Adobe Illustrator 26.5.0, SVG Export Plug-In . SVG Version: 6.00 Build 0)  -->
<svg version="1.1" id="Layer_1" xmlns="http://www.w3.org/2000/svg" xmlns:xlink="http://www.w3.org/1999/xlink" x="0px" y="0px"
	 viewBox="0 0 368.5 255.1" style="enable-background:new 0 0 368.5 255.1;" xml:space="preserve">
<style type="text/css">
	.st0{fill:#F5891B;}
</style>
<g id="Burger_Menu">
	<path class="st0" d="M345.5,45H23C10,45,0,35.3,0,22.5S10,0,23,0h322.4c13.1,0,23,9.8,23,22.5S358.5,45,345.5,45z"/>
	<path class="st0" d="M345.5,150.1H23c-13.1,0-23-9.8-23-22.5C0,114.8,10,105,23,105h322.4c13.1,0,23,9.8,23,22.5
		C368.5,140.3,358.5,150.1,345.5,150.1z"/>
	<path class="st0" d="M345.5,255.1H23c-13.1,0-23-9.8-23-22.5c0-12.8,10-22.5,23-22.5h322.4c13.1,0,23,9.8,23,22.5
		C368.5,245.4,358.5,255.1,345.5,255.1z"/>
</g>
</svg>
