<svg width="87" height="82" viewBox="0 0 87 82" fill="none" xmlns="http://www.w3.org/2000/svg">
<path d="M43.6959 28.5576C44.8922 28.5576 45.8611 27.6446 45.8611 26.5186C45.8611 25.3926 44.8922 24.4796 43.6959 24.4796C34.1298 24.4796 26.3748 31.7826 26.3748 40.7918C26.3748 49.8003 34.1298 57.1034 43.6959 57.1034C53.2626 57.1034 61.0176 49.8003 61.0176 40.7918C61.0176 39.6652 60.0481 38.7527 58.8524 38.7527C57.6567 38.7527 56.6872 39.6652 56.6872 40.7918C56.6872 47.5483 50.8713 53.0259 43.6959 53.0259C36.5212 53.0259 30.7046 47.5483 30.7046 40.7918C30.7046 34.0346 36.5212 28.5576 43.6959 28.5576Z" fill="#212121" fill-opacity="0.1"/>
<path d="M85.0081 28.6807C84.6321 27.6109 83.4066 27.0307 82.2699 27.3848C81.1598 27.7308 80.5418 28.8437 80.8727 29.8997C87.3478 49.3176 75.8817 70.002 55.2621 76.0998C34.6432 82.1975 12.6786 71.3997 6.20355 51.9818C-0.272202 32.5639 11.1945 11.8795 31.8134 5.78175C39.4464 3.52477 47.6298 3.52477 55.2621 5.78175C56.4081 6.10712 57.617 5.49635 57.9625 4.4172C58.3027 3.35428 57.6787 2.23079 56.5573 1.8873C33.6617 -4.87739 9.2773 7.11758 2.09395 28.6794C-5.08939 50.2407 7.64857 73.2039 30.5442 79.9686C53.4404 86.7333 77.8241 74.7383 85.0075 53.1765C87.6641 45.2027 87.6641 36.6544 85.0081 28.6807Z" fill="#212121" fill-opacity="0.1"/>
<path d="M47.8194 14.5673C47.8307 13.4063 46.8837 12.4358 45.6542 12.349C45.0076 12.2972 44.3604 12.2454 43.6966 12.2454C26.9551 12.2454 13.3835 25.026 13.3835 40.7917C13.3835 56.5569 26.9551 69.3375 43.6966 69.3375C60.4374 69.3375 74.0089 56.5569 74.0089 40.7917C74.0089 40.0542 73.9612 39.3173 73.865 38.5853C73.6919 37.4662 72.5884 36.6912 71.4001 36.8542C70.2117 37.0166 69.3887 38.0564 69.5611 39.1755C69.5678 39.218 69.5757 39.2598 69.585 39.3023C69.6321 39.7963 69.6785 40.2859 69.6785 40.7905C69.6792 54.3043 58.0467 65.2588 43.6972 65.2601C29.3471 65.2607 17.7146 54.3055 17.714 40.7924C17.7133 27.2792 29.3451 16.324 43.6952 16.3234H43.6959C44.2331 16.3234 44.7536 16.3671 45.2769 16.4108L45.6827 16.4427C46.8141 16.4883 47.7704 15.6614 47.8181 14.596C47.8188 14.586 47.8188 14.5767 47.8194 14.5673Z" fill="#212121" fill-opacity="0.1"/>
<path d="M56.6872 18.3626V25.6744L42.1653 39.3499C41.3052 40.1324 41.2813 41.4233 42.1123 42.2333C42.9432 43.0432 44.314 43.0657 45.1741 42.2832C45.192 42.267 45.2099 42.2501 45.2271 42.2333L59.749 28.5577H67.5133C68.0876 28.5577 68.638 28.3429 69.0445 27.9601L82.0352 15.7259C82.8807 14.9297 82.8807 13.6388 82.0352 12.8425C81.6293 12.4603 81.0789 12.2455 80.5046 12.2455H74.0089V6.12843C74.0089 5.00244 73.0394 4.0894 71.8431 4.09003C71.2694 4.09003 70.719 4.30486 70.3131 4.68706L57.3218 16.9212C56.9153 17.3034 56.6872 17.8218 56.6872 18.3626ZM61.0176 19.2069L69.6785 11.0508V14.2845C69.6785 15.4105 70.648 16.3236 71.8437 16.3236H75.2776L66.6167 24.4797H61.0176V19.2069Z" fill="#212121" fill-opacity="0.1"/>
</svg>
