<svg width="88" height="83" viewBox="0 0 88 83" fill="none" xmlns="http://www.w3.org/2000/svg">
<path d="M73.6786 1.25862L75.0121 5.95282L19.9199 19.7986L21.2553 24.4994L11.2949 27.017L12.6294 31.7146L7.64916 32.9734L4.98028 23.5782L0 24.8369L6.67229 48.3248L11.6526 47.066L8.98369 37.6708L13.964 36.412L15.2985 41.1096L25.2591 38.5922L26.5908 43.2803L37.584 40.547C38.2783 41.5167 39.2132 42.3212 40.3072 42.8839L21.7743 78.1367H15.6396V83H24.9727L41.4193 51.7153V78.1367H36.2634V83H51.7311V78.1367H46.5752V51.7153L63.0218 83H72.3549V78.1367H66.2202L47.6875 42.8839C49.9439 41.7234 51.5213 39.5331 51.7098 36.9874L81.6845 29.4417L83.0197 34.1415L88 32.8828L78.6588 0L73.6786 1.25862ZM18.9441 35.1534L17.6096 30.4558L22.5898 29.197L23.9244 33.8946L18.9441 35.1534ZM26.2366 23.2442L66.3824 13.1547L70.3872 27.2522L50.3344 32.3001C48.9347 30.4153 46.6168 29.1795 43.9974 29.1795C39.9605 29.1795 36.638 32.1127 36.2948 35.838L30.2419 37.343L26.2366 23.2442ZM43.9973 38.9062C42.5758 38.9062 41.4193 37.8154 41.4193 36.4746C41.4193 35.1338 42.5758 34.043 43.9973 34.043C45.4187 34.043 46.5752 35.1338 46.5752 36.4746C46.5752 37.8154 45.4187 38.9062 43.9973 38.9062ZM75.3685 25.9983L71.3644 11.9027L76.3466 10.6506L80.3502 24.7442L75.3685 25.9983Z" fill="#212121" fill-opacity="0.1"/>
</svg>
