<?xml version="1.0" encoding="utf-8"?>
<!-- Generator: Adobe Illustrator 26.5.0, SVG Export Plug-In . SVG Version: 6.00 Build 0)  -->
<svg version="1.1" id="Layer_1" xmlns="http://www.w3.org/2000/svg" xmlns:xlink="http://www.w3.org/1999/xlink" x="0px" y="0px"
	 viewBox="0 0 49 49" style="enable-background:new 0 0 49 49;" xml:space="preserve">
<style type="text/css">
	.st0{fill:#FFFFFF;}
</style>
<path class="st0" d="M24.5,48.9l-0.3-0.1c-1-0.3-18.8-10.2-18.8-20v-20h1c4.3,0,15.8-5.3,17.2-7.6l0.8-1.2l0.8,1.2
	c1.6,2.3,12.4,7.6,17.3,7.6h1v21c0,8.2-17.9,18.7-18.8,19L24.5,48.9z M7.4,10.8v18.1c0,7.4,14.2,16.5,17.1,17.9
	C27,45.5,41.6,36,41.6,29.8V10.8c-5-0.5-13.9-4.7-17.1-7.5C21.3,6.2,12.2,10.2,7.4,10.8z"/>
<path class="st0" d="M24.8,43.8l-0.5-1.9l0.3,1l-0.3-0.9c1.7-0.8,13.6-9.3,13.6-14.1v-14h2v14C39.8,34.2,25.8,43.5,24.8,43.8z"/>
<path class="st0" d="M11.2,28.8h-2v-16h1c3.5,0,12.3-3.8,13.4-5.6l1.7,1.1c-1.6,2.4-9.9,5.8-14.1,6.4V28.8z"/>
<polygon class="st0" points="22.6,30.3 18.1,25.5 19.5,24.2 22.6,27.3 29.4,19.2 31,20.5 "/>
</svg>
