<?xml version="1.0" encoding="utf-8"?>
<!-- Generator: Adobe Illustrator 26.5.0, SVG Export Plug-In . SVG Version: 6.00 Build 0)  -->
<svg version="1.1" id="Layer_1" xmlns="http://www.w3.org/2000/svg" xmlns:xlink="http://www.w3.org/1999/xlink" x="0px" y="0px"
	 viewBox="0 0 49 49" style="enable-background:new 0 0 49 49;" xml:space="preserve">
<style type="text/css">
	.st0{fill:#FFFFFF;}
</style>
<path class="st0" d="M32.6,13.8c-0.1,0-0.2,0-0.4-0.1c-0.4-0.1-0.6-0.5-0.6-0.9v-2.2H14.5V8.8h18.1c0.5,0,1,0.4,1,1v0.8l2.8-2.9
	l-2.8-2.9v0.8c0,0.5-0.4,1-1,1H7.4V4.5h24.2V2.3c0-0.4,0.2-0.7,0.6-0.9c0.4-0.1,0.8-0.1,1,0.2l5,5.3c0.3,0.4,0.3,0.9,0,1.3l-5,5.3
	C33.1,13.7,32.8,13.8,32.6,13.8z"/>
<path class="st0" d="M42.6,32.9c-0.1,0-0.2,0-0.4-0.1c-0.4-0.1-0.6-0.5-0.6-0.9v-2.2h-5.1v-1.9h6c0.5,0,1,0.4,1,1v0.8l2.8-2.9
	l-2.8-2.9v0.8c0,0.5-0.4,1-1,1h-7v-1.9h6.1v-2.2c0-0.4,0.2-0.7,0.6-0.9c0.4-0.1,0.8-0.1,1,0.2l5,5.3c0.3,0.4,0.3,0.9,0,1.3l-5,5.3
	C43.1,32.7,42.9,32.9,42.6,32.9z"/>
<path class="st0" d="M35.6,47.6c-0.1,0-0.2,0-0.4-0.1c-0.4-0.1-0.6-0.5-0.6-0.9v-2.2H15.5v-1.9h20.1c0.5,0,1,0.4,1,1v0.8l2.8-2.9
	l-2.8-2.9v0.8c0,0.5-0.4,1-1,1h-5v-1.9h4.1v-2.2c0-0.4,0.2-0.7,0.6-0.9c0.4-0.1,0.8-0.1,1,0.2l5,5.3c0.3,0.4,0.3,0.9,0,1.3l-5,5.3
	C36.1,47.5,35.8,47.6,35.6,47.6z"/>
<rect x="0.4" y="36.2" class="st0" width="12.1" height="1.9"/>
<path class="st0" d="M21.5,30.7c-2.2,0-4-1.8-4-4.1s1.8-4.1,4-4.1s4,1.8,4,4.1S23.7,30.7,21.5,30.7z M21.5,24.4
	c-1.1,0-2.1,1-2.1,2.2c0,1.2,0.9,2.2,2.1,2.2s2.1-1,2.1-2.2C23.6,25.4,22.6,24.4,21.5,24.4z"/>
<path class="st0" d="M24.2,40.1c-0.4,0-0.7-0.2-0.9-0.6l-1.1-2.5c-0.7,0-1.3,0-1.9-0.1l-1.2,2.4c-0.2,0.5-0.8,0.7-1.3,0.4l-3.2-1.5
	c-0.4-0.2-0.7-0.7-0.5-1.2l0.9-2.7c-0.5-0.5-1-1-1.4-1.5l-2.4,0.7c-0.5,0.2-1-0.1-1.2-0.6l-1.3-3.5c-0.2-0.5,0-1,0.5-1.2l2.4-1.2
	c0-0.7,0-1.4,0.1-2.1l-2.3-1.3c-0.4-0.2-0.6-0.8-0.4-1.2l1.4-3.4c0.2-0.5,0.7-0.7,1.2-0.5l2.5,0.9c0.4-0.5,0.9-1,1.5-1.5l-0.7-2.7
	c-0.1-0.5,0.1-0.9,0.6-1.1l3.3-1.4c0.5-0.2,1,0,1.2,0.5l1.1,2.5c0.7,0,1.3,0,1.9,0.1l1.2-2.4c0.2-0.5,0.8-0.7,1.3-0.4l3.2,1.5
	c0.4,0.2,0.7,0.7,0.5,1.2l-0.9,2.7c0.5,0.5,1,1,1.4,1.5l2.3-0.8c0.5-0.2,1,0.1,1.2,0.6l1.3,3.5c0.2,0.4,0,0.9-0.4,1.2l-2.4,1.3
	c0,0.8,0,1.5-0.1,2.1l2.3,1.3c0.4,0.2,0.6,0.8,0.4,1.2l-1.4,3.4c-0.2,0.5-0.7,0.7-1.2,0.5l-2.5-0.9c-0.4,0.5-0.9,1-1.4,1.4l0.8,2.6
	c0.1,0.5-0.1,1-0.5,1.2l-3.3,1.4C24.5,40.1,24.3,40.1,24.2,40.1z M22.8,35.2c0.4,0,0.7,0.2,0.9,0.6l1,2.2l1.7-0.7l-0.8-2.4
	c-0.1-0.4,0-0.8,0.4-1.1c0.8-0.5,1.4-1.2,2-2c0.3-0.4,0.7-0.5,1.1-0.3l2.3,0.8l0.7-1.7l-2.2-1.2c-0.4-0.2-0.6-0.6-0.5-1
	c0.2-0.9,0.2-1.8,0.1-2.9c0-0.4,0.2-0.7,0.5-0.9l2.2-1.2l-0.7-1.8l-2.1,0.7c-0.4,0.1-0.9,0-1.1-0.4c-0.5-0.8-1.1-1.5-1.9-2.1
	c-0.3-0.2-0.4-0.7-0.3-1.1l0.8-2.5l-1.6-0.7l-1.1,2.2c-0.2,0.4-0.6,0.6-1,0.5c-0.8-0.2-1.7-0.2-2.7-0.1c-0.4,0-0.8-0.2-1-0.5l-1-2.2
	l-1.7,0.7l0.7,2.5c0.1,0.4,0,0.8-0.4,1c-0.8,0.5-1.4,1.2-2,2c-0.2,0.4-0.7,0.5-1.1,0.3l-2.3-0.8L11,22.8l2.2,1.2
	c0.4,0.2,0.6,0.6,0.5,1c-0.2,0.9-0.2,1.8-0.1,2.9c0,0.4-0.2,0.8-0.5,0.9l-2.2,1.1l0.7,1.9l2.3-0.7c0.4-0.1,0.9,0,1.1,0.4
	c0.5,0.8,1.1,1.5,1.9,2.1c0.3,0.2,0.4,0.7,0.3,1.1l-0.8,2.5l1.6,0.7l1.1-2.2c0.2-0.4,0.6-0.6,1-0.5C20.8,35.3,21.7,35.3,22.8,35.2
	C22.8,35.2,22.8,35.2,22.8,35.2z"/>
<rect x="3.4" y="14" class="st0" width="9.1" height="1.9"/>
</svg>
