<?xml version="1.0" encoding="utf-8"?>
<!-- Generator: Adobe Illustrator 26.5.0, SVG Export Plug-In . SVG Version: 6.00 Build 0)  -->
<svg version="1.1" id="Layer_1" xmlns="http://www.w3.org/2000/svg" xmlns:xlink="http://www.w3.org/1999/xlink" x="0px" y="0px"
	 viewBox="0 0 49 49" style="enable-background:new 0 0 49 49;" xml:space="preserve">
<style type="text/css">
	.st0{fill:#FFFFFF;}
</style>
<path class="st0" d="M27.1,3.6c-1.9,0-3.7,0.2-5.4,0.7l0.5,2c1.5-0.4,3.2-0.6,4.9-0.6c4,0,7.8,1.3,10.9,3.6l-1.1,1.2h-5l-2,2.1h-1.6
	c-2.8,0-5.1,2.4-5.1,5.3V21h7.6l5,5.3h3.9l1-1h1l2,3.2h2.5c-1.1,10.1-9.3,18-19.2,18C16.4,46.4,7.8,37.2,7.8,26
	c0-6.1,2.6-11.8,7.1-15.7l-1.4-1.6c-4,3.4-6.6,8.2-7.5,13.4c-2.2-1.7-4.7-4.8-2.7-9.2c0.9-2.2,3.8-3.6,6.8-5
	c2.4-1.1,4.9-2.3,6.8-4.1c2.6,4,2.6,10-0.2,15c-1.8,3.3-5.3,3.8-7.2,3.8v2.1c1.9,0,6.6-0.5,9-4.9c3.5-6.1,3.2-13.7-0.7-18.3l-0.8-1
	l-0.8,1c-1.6,2-4.3,3.2-7,4.5C5.9,7.4,2.6,9,1.3,12c-2,4.6-0.4,9.2,4.3,12.4l0.1-0.1c0,0.6-0.1,1.1-0.1,1.7
	c0,12.4,9.6,22.6,21.4,22.6c11.8,0,21.4-10.1,21.4-22.5C48.5,13.7,38.9,3.6,27.1,3.6z M45,26.3l-2-3.2h-3l-1,1h-2.1l-5-5.3h-6.4
	v-1.1c0-1.7,1.3-3.2,3-3.2h2.5l2-2.1h5l1.9-2c4.1,3.7,6.8,9.3,6.8,15.5c0,0.1,0,0.1,0,0.2H45z"/>
<path class="st0" d="M32.8,41h-4.5v-8l-1.4-1.5h-4.6v-4.6l3.6-3.8h5.9l5.6,5.9v7.2L32.8,41z M30.4,38.9h1.5l3.4-3.6v-5.5l-4.4-4.6
	h-4.1l-2.4,2.5v1.7h3.4l2.6,2.7V38.9z"/>
</svg>
