<?xml version="1.0" encoding="utf-8"?>
<!-- Generator: Adobe Illustrator 26.5.0, SVG Export Plug-In . SVG Version: 6.00 Build 0)  -->
<svg version="1.1" id="Layer_1" xmlns="http://www.w3.org/2000/svg" xmlns:xlink="http://www.w3.org/1999/xlink" x="0px" y="0px"
	 viewBox="0 0 49 49" style="enable-background:new 0 0 49 49;" xml:space="preserve">
<style type="text/css">
	.st0{fill:#FFFFFF;}
</style>
<rect x="23.5" y="0.4" class="st0" width="2.1" height="9.2"/>
<rect x="10.8" y="6.4" transform="matrix(0.7245 -0.6893 0.6893 0.7245 -4.1011 11.1097)" class="st0" width="2.1" height="8.6"/>
<rect x="2" y="23" class="st0" width="8.8" height="2.1"/>
<rect x="7.5" y="36.3" transform="matrix(0.6893 -0.7245 0.7245 0.6893 -23.3326 20.1672)" class="st0" width="8.6" height="2.1"/>
<rect x="36.1" y="33" transform="matrix(0.7245 -0.6893 0.6893 0.7245 -15.4649 35.8818)" class="st0" width="2.1" height="8.6"/>
<rect x="38.2" y="23" class="st0" width="8.8" height="2.1"/>
<rect x="32.8" y="9.7" transform="matrix(0.6893 -0.7245 0.7245 0.6893 3.8028 30.2374)" class="st0" width="8.6" height="2.1"/>
<path class="st0" d="M26.5,48.6h-3.9c-0.3,0-0.6-0.1-0.7-0.3l-0.7-0.7h-0.5v-2.1h1c0.3,0,0.6,0.1,0.7,0.3l0.7,0.7h3l0.7-0.7
	c0.2-0.2,0.5-0.3,0.7-0.3h1v2.1h-0.5l-0.7,0.7C27,48.5,26.7,48.6,26.5,48.6z"/>
<rect x="18.6" y="39.4" class="st0" width="11.7" height="2.1"/>
<rect x="19.6" y="42.5" class="st0" width="9.8" height="2.1"/>
<path class="st0" d="M30.4,38.4h-2.1v-2.1c0-2.2,0.7-4.2,2.1-5.6c1.8-1.9,2.7-4.2,2.7-6.7c0-5.1-3.9-9.2-8.7-9.2
	c-4.8,0-8.7,4.1-8.7,9.2c0,2.5,0.9,4.8,2.7,6.7c1.4,1.5,2.1,3.4,2.1,5.6v2.1h-2.1v-2.1c0-1.7-0.5-3.1-1.6-4.2
	c-2.2-2.3-3.3-5-3.3-8.1c0-6.2,4.8-11.3,10.8-11.3S35.3,17.8,35.3,24c0,3.1-1.1,5.8-3.3,8.1c-1,1.1-1.6,2.5-1.6,4.2V38.4z"/>
<rect x="17.5" y="6.8" transform="matrix(0.933 -0.3599 0.3599 0.933 -1.9409 7.2465)" class="st0" width="2.1" height="4.1"/>
<rect x="9.1" y="15.7" transform="matrix(0.392 -0.92 0.92 0.392 -10.1216 20.025)" class="st0" width="2.1" height="3.9"/>
<rect x="8.1" y="29.3" transform="matrix(0.9199 -0.3921 0.3921 0.9199 -11.0736 6.3822)" class="st0" width="3.9" height="2.1"/>
<rect x="37.9" y="28.3" transform="matrix(0.3921 -0.9199 0.9199 0.3921 -4.2205 54.2186)" class="st0" width="2.1" height="3.9"/>
<rect x="36.9" y="16.6" transform="matrix(0.9201 -0.3917 0.3917 0.9201 -3.8119 16.6529)" class="st0" width="3.9" height="2.1"/>
<rect x="28.5" y="7.8" transform="matrix(0.36 -0.933 0.933 0.36 11.2832 34.1197)" class="st0" width="4.1" height="2.1"/>
<polygon class="st0" points="28,27.9 25.5,29.7 25.5,38.4 23.5,38.4 23.5,29.7 21,27.9 22.2,26.2 24.5,27.9 26.8,26.2 "/>
</svg>
