<svg width="16" height="23" viewBox="0 0 16 23" fill="none" xmlns="http://www.w3.org/2000/svg">
<path d="M8 0.522217C3.58878 0.522217 0 4.09645 0 8.48975C0 13.942 7.15922 21.9462 7.46403 22.2842C7.75033 22.6018 8.25019 22.6013 8.53597 22.2842C8.84078 21.9462 16 13.942 16 8.48975C15.9999 4.09645 12.4112 0.522217 8 0.522217ZM8 12.4984C5.7806 12.4984 3.97504 10.7002 3.97504 8.48975C3.97504 6.27935 5.78065 4.4811 8 4.4811C10.2194 4.4811 12.0249 6.27939 12.0249 8.48979C12.0249 10.7002 10.2194 12.4984 8 12.4984Z" fill="#1E2E00"/>
</svg>
