<svg width="19" height="14" viewBox="0 0 19 14" fill="none" xmlns="http://www.w3.org/2000/svg">
<path d="M12.2114 7.80444L10.633 9.38816C9.99293 10.0305 8.86675 10.0443 8.21285 9.38816L6.6344 7.80444L0.965336 13.4919C1.17636 13.5895 1.40902 13.6477 1.65637 13.6477H17.1895C17.4368 13.6477 17.6694 13.5896 17.8804 13.4919L12.2114 7.80444Z" fill="#1E2E00"/>
<path d="M17.1895 0.396729H1.65637C1.40902 0.396729 1.17636 0.454959 0.965408 0.552538L7.0232 6.63043C7.02361 6.63084 7.02409 6.63091 7.02449 6.63131C7.0249 6.63172 7.02497 6.63227 7.02497 6.63227L8.99469 8.60851C9.20391 8.81773 9.642 8.81773 9.85122 8.60851L11.8205 6.6326C11.8205 6.6326 11.821 6.63172 11.8214 6.63131C11.8214 6.63131 11.8223 6.63084 11.8227 6.63043L17.8804 0.552501C17.6694 0.454886 17.4368 0.396729 17.1895 0.396729Z" fill="#1E2E00"/>
<path d="M0.176164 1.32471C0.066991 1.54548 0 1.79055 0 2.05307V11.9913C0 12.2538 0.0669174 12.4989 0.176128 12.7197L5.85502 7.02237L0.176164 1.32471Z" fill="#1E2E00"/>
<path d="M18.6697 1.32471L12.9909 7.02244L18.6697 12.7198C18.7788 12.499 18.8458 12.254 18.8458 11.9914V2.05314C18.8458 1.79055 18.7788 1.54548 18.6697 1.32471Z" fill="#1E2E00"/>
</svg>
