<svg width="56" height="41" viewBox="0 0 56 41" fill="none" xmlns="http://www.w3.org/2000/svg">
<path d="M4.13008 7.81146C5.45327 6.36784 6.83983 5.06882 8.36653 3.8628C8.54609 3.72102 8.80458 3.89078 8.74448 4.11149C7.88874 7.25669 6.39361 10.365 4.08881 12.6757C3.98526 11.058 3.98373 9.42691 4.13008 7.81146Z" fill="#FF901D"/>
<path d="M4.08891 12.6769C2.75821 11.071 1.61468 9.41074 0.584393 7.61824C0.466578 7.41332 0.153202 7.48638 0.141224 7.72256C-0.0446453 11.3943 1.35825 15.6906 4.77621 17.4234C4.43561 15.8619 4.19018 14.273 4.08891 12.6769Z" fill="#FF901D"/>
<path d="M4.776 17.4222C5.61345 15.6991 6.55085 14.0959 7.64963 12.542C7.77997 12.3576 8.07233 12.4421 8.0818 12.6678C8.21562 15.8395 7.67141 19.1924 6.15168 21.9766C5.5883 20.4946 5.11311 18.9724 4.776 17.4222Z" fill="#FF901D"/>
<path d="M6.15207 21.9777C4.42414 20.8671 2.84572 19.6529 1.33165 18.289C1.157 18.1317 0.883038 18.296 0.942163 18.5234C1.85431 22.0306 4.4628 25.6296 8.17649 26.2653C7.40448 24.8868 6.71294 23.4559 6.15207 21.9777Z" fill="#FF901D"/>
<path d="M8.17578 26.2644C8.47849 24.3846 8.91142 22.5913 9.51411 20.7985C9.58576 20.5853 9.88857 20.5811 9.9637 20.7933C11.0177 23.7689 11.4447 27.126 10.8088 30.2112C9.84207 28.9601 8.94779 27.6453 8.17578 26.2644Z" fill="#FF901D"/>
<path d="M10.8094 30.2121C8.83974 29.6541 6.97887 28.9562 5.13596 28.1008C4.92308 28.002 4.70967 28.2389 4.83238 28.4389C6.72723 31.529 10.2748 34.2044 14.0112 33.7433C12.8642 32.6445 11.7803 31.4706 10.8094 30.2121Z" fill="#FF901D"/>
<path d="M14.0103 33.7425C13.7416 31.8486 13.6274 30.0013 13.6802 28.1024C13.6864 27.8774 13.9751 27.7851 14.1089 27.9663C15.9961 30.5249 17.404 33.633 17.7409 36.7841C16.4286 35.8618 15.1685 34.8537 14.0103 33.7425Z" fill="#FF901D"/>
<path d="M51.87 7.81146C50.5468 6.36784 49.1602 5.06882 47.6335 3.8628C47.454 3.72102 47.1955 3.89078 47.2556 4.11149C48.1113 7.25669 49.6064 10.365 51.9112 12.6757C52.0148 11.058 52.0163 9.42691 51.87 7.81146Z" fill="#FF901D"/>
<path d="M51.911 12.6769C53.2418 11.071 54.3853 9.41074 55.4156 7.61824C55.5334 7.41332 55.8468 7.48638 55.8587 7.72256C56.0446 11.3943 54.6417 15.6906 51.2238 17.4234C51.5644 15.8619 51.8098 14.273 51.911 12.6769Z" fill="#FF901D"/>
<path d="M51.224 17.4222C50.3866 15.6991 49.4492 14.0959 48.3504 12.542C48.22 12.3576 47.9277 12.4421 47.9182 12.6678C47.7844 15.8395 48.3286 19.1924 49.8483 21.9766C50.4117 20.4946 50.8869 18.9724 51.224 17.4222Z" fill="#FF901D"/>
<path d="M49.848 21.9777C51.576 20.8671 53.1544 19.6529 54.6684 18.289C54.8431 18.1317 55.1171 18.296 55.0579 18.5234C54.1458 22.0306 51.5373 25.6296 47.8236 26.2653C48.5956 24.8868 49.2872 23.4559 49.848 21.9777Z" fill="#FF901D"/>
<path d="M47.8243 26.2644C47.5216 24.3846 47.0887 22.5913 46.486 20.7985C46.4143 20.5853 46.1115 20.5811 46.0364 20.7933C44.9824 23.7689 44.5554 27.126 45.1913 30.2112C46.158 28.9601 47.0523 27.6453 47.8243 26.2644Z" fill="#FF901D"/>
<path d="M45.1906 30.2121C47.1602 29.6541 49.0211 28.9562 50.864 28.1008C51.0769 28.002 51.2903 28.2389 51.1676 28.4389C49.2727 31.529 45.7252 34.2044 41.9888 33.7433C43.1358 32.6445 44.2196 31.4706 45.1906 30.2121Z" fill="#FF901D"/>
<path d="M41.9896 33.7425C42.2583 31.8486 42.3726 30.0013 42.3197 28.1024C42.3135 27.8774 42.0248 27.7851 41.8911 27.9663C40.0038 30.5249 38.5959 33.633 38.259 36.7841C39.5713 35.8618 40.8314 34.8537 41.9896 33.7425Z" fill="#FF901D"/>
<path d="M22.3492 38.5123C20.8412 37.7688 19.4628 36.9597 18.2521 36.108C18.2518 36.1078 18.2515 36.1077 18.2512 36.1075C18.251 36.1074 18.2509 36.1071 18.2507 36.107C16.8995 35.1575 15.6813 34.1646 14.6294 33.1555C14.6292 33.1553 14.629 33.155 14.6288 33.1548C13.4481 32.0239 12.4019 30.8703 11.5191 29.7261C11.5189 29.7257 11.5185 29.7254 11.5183 29.7251C11.5182 29.725 11.5182 29.7249 11.5181 29.7247C10.5222 28.4357 9.66169 27.1462 8.96046 25.8916C8.96013 25.891 8.95969 25.8904 8.95937 25.8898C8.16406 24.4691 7.50279 23.0689 6.99407 21.7279C6.99385 21.7273 6.99364 21.7269 6.99342 21.7265V21.7264C6.4124 20.1975 5.9628 18.7094 5.65694 17.3035C5.65694 17.3033 5.65683 17.3032 5.65683 17.3031C5.30567 15.6932 5.08104 14.1429 4.98925 12.6957C4.98925 12.695 4.98903 12.6943 4.98903 12.6937C4.88232 11.0269 4.89561 9.43828 5.02856 7.9719C5.03019 7.95415 5.03019 7.93651 5.03063 7.91887C5.20615 5.65131 5.62591 3.3783 6.28032 1.16169C6.41185 0.716017 6.15717 0.248131 5.71149 0.116595C5.26604 -0.0150486 4.79793 0.239529 4.6664 0.68542C3.97159 3.03901 3.52744 5.454 3.34637 7.86334C3.34517 7.87978 3.34549 7.8959 3.34517 7.91212C3.21211 9.43893 3.19959 11.0829 3.30967 12.8015C3.30967 12.8018 3.30967 12.802 3.30967 12.8023C3.4068 14.3327 3.64297 15.966 4.01177 17.6572C4.0121 17.6585 4.01221 17.6599 4.01243 17.6612C4.33593 19.1486 4.80959 20.7175 5.42033 22.3242C5.42044 22.3244 5.42044 22.3246 5.42055 22.3248C5.95878 23.7434 6.65543 25.2196 7.49125 26.7123C7.49136 26.7125 7.49147 26.7127 7.49157 26.7129C7.4919 26.7135 7.49212 26.7139 7.49245 26.7144C7.49245 26.7144 7.49245 26.7144 7.49255 26.7145C8.23418 28.0407 9.14045 29.3996 10.1864 30.7535C10.1868 30.7541 10.1873 30.7544 10.1876 30.7549C11.1209 31.9643 12.2227 33.1799 13.4626 34.3678C13.4629 34.3681 13.4631 34.3684 13.4635 34.3688C14.5768 35.437 15.862 36.4851 17.2834 37.4839C17.2836 37.484 17.2838 37.4841 17.284 37.4842C18.5654 38.3859 20.0192 39.2396 21.6049 40.0216C21.7247 40.0806 21.8516 40.1086 21.9764 40.1086C22.2867 40.1086 22.5852 39.9363 22.7317 39.6392C22.9372 39.2224 22.7659 38.7179 22.3492 38.5123Z" fill="#F7BC14"/>
<path d="M52.6549 7.91214C52.6546 7.89592 52.6549 7.87991 52.6537 7.86358C52.4726 5.45381 52.0285 3.0387 51.3337 0.685547C51.2021 0.239982 50.7343 -0.0141593 50.2885 0.116831C49.8428 0.248367 49.5882 0.716362 49.7197 1.16203C50.374 3.3781 50.7938 5.651 50.9694 7.91878C50.97 7.93653 50.97 7.95428 50.9716 7.97214C51.1046 9.43797 51.1178 11.0267 51.0111 12.6941C51.0111 12.6944 51.0111 12.6948 51.0111 12.695C51.0111 12.6953 51.011 12.6955 51.011 12.6959C50.9192 14.1424 50.6946 15.6925 50.3433 17.3032C50.3433 17.3033 50.3432 17.3035 50.3432 17.3036C50.0376 18.7096 49.5879 20.1976 49.0067 21.7264C49.0066 21.7266 49.0066 21.7267 49.0065 21.7269C49.0064 21.7274 49.0062 21.7277 49.006 21.728C48.4974 23.069 47.8359 24.4696 47.0399 25.8913C47.0398 25.8914 47.0397 25.8916 47.0396 25.8917C46.3385 27.146 45.4779 28.4355 44.4818 29.7249C44.4816 29.7252 44.4814 29.7255 44.4812 29.7259C44.4811 29.726 44.4811 29.726 44.481 29.7261C43.5985 30.8699 42.552 32.0235 41.3713 33.1548C41.3711 33.155 41.3708 33.1553 41.3706 33.1556C40.3192 34.1643 39.1008 35.1573 37.7493 36.107C37.7489 36.1073 37.7486 36.1076 37.7482 36.1079C37.7481 36.1079 37.748 36.108 37.7479 36.108C36.5371 36.96 35.1587 37.7689 33.6508 38.5124C33.234 38.7178 33.0627 39.2223 33.2683 39.639C33.4147 39.9363 33.7132 40.1085 34.0235 40.1085C34.1484 40.1085 34.2752 40.0805 34.3949 40.0215C35.9804 39.2397 37.434 38.3862 38.7154 37.4846C38.7159 37.4842 38.7163 37.4841 38.7167 37.4838C40.1384 36.4847 41.4235 35.4366 42.5366 34.3687C42.5369 34.3683 42.5371 34.368 42.5375 34.3677C43.7779 33.1791 44.88 31.9633 45.8131 30.754C45.8132 30.754 45.8132 30.7539 45.8133 30.7537C45.8134 30.7536 45.8135 30.7535 45.8136 30.7534C46.8602 29.3986 47.767 28.0392 48.5085 26.7128C48.509 26.712 48.5094 26.7111 48.5098 26.7102C49.3454 25.2176 50.0417 23.7421 50.5793 22.3248C50.5793 22.3247 50.5794 22.3247 50.5794 22.3245C50.5794 22.3244 50.5795 22.3244 50.5795 22.3242C51.1899 20.7184 51.6633 19.1504 51.9868 17.6637C51.9869 17.6634 51.987 17.6632 51.9871 17.6628C52.3565 15.9689 52.5931 14.3336 52.6903 12.8022C52.6904 12.801 52.6903 12.8 52.6903 12.7989C52.8004 11.0806 52.7878 9.43753 52.6549 7.91214Z" fill="#F7BC14"/>
<path d="M23.219 24.5357C20.7935 24.5358 18.4293 23.6764 16.5481 22.0755C14.2273 20.1006 12.8961 17.2205 12.8961 14.174V11.329C12.8961 11.0001 13.0244 10.6909 13.2572 10.4586C13.4892 10.2273 13.7974 10.0999 14.1249 10.0999C14.126 10.0999 14.1271 10.0999 14.1282 10.0999L21.5769 10.1162C22.0415 10.1172 22.4174 10.4947 22.4164 10.9594C22.4153 11.4234 22.0388 11.7989 21.5752 11.7989C21.5745 11.7989 21.5738 11.7989 21.5732 11.7989L14.5789 11.7836L14.5787 14.1739C14.5787 16.7262 15.694 19.1391 17.6385 20.7938C19.568 22.4358 22.1048 23.1461 24.5969 22.7418C24.6833 22.7278 24.7703 22.7131 24.8582 22.6977C25.3164 22.6183 25.7519 22.9237 25.8321 23.3813C25.9122 23.8391 25.6061 24.2751 25.1485 24.3552C25.0536 24.3717 24.9595 24.3878 24.8661 24.4029C24.3175 24.492 23.7665 24.5357 23.219 24.5357Z" fill="#FFB125"/>
<path d="M32.7811 24.5357C32.2334 24.5357 31.6828 24.492 31.1338 24.403C31.0405 24.3879 30.9463 24.3719 30.8515 24.3553C30.3937 24.2752 30.0878 23.8391 30.1679 23.3814C30.248 22.9237 30.6846 22.6182 31.1418 22.6978C31.2295 22.7133 31.3167 22.728 31.4031 22.7419C33.8957 23.1459 36.4319 22.436 38.3615 20.794C40.306 19.1393 41.4212 16.7264 41.4212 14.174V11.7837L34.4269 11.799C34.4262 11.799 34.4256 11.799 34.4249 11.799C33.9612 11.799 33.5847 11.4236 33.5837 10.9595C33.5826 10.4948 33.9585 10.1173 34.4232 10.1163L41.8722 10.1C41.8733 10.1 41.8744 10.1 41.8755 10.1C42.2028 10.1 42.5109 10.2273 42.743 10.4588C42.9758 10.6911 43.1041 11.0001 43.1041 11.3291V14.1741C43.1041 17.2206 41.773 20.1007 39.4521 22.0757C37.5709 23.6763 35.2065 24.5357 32.7811 24.5357Z" fill="#FFB125"/>
<path d="M22.468 36.729H33.5319C28.949 30.9173 29.4272 22.5415 29.4272 22.5415H28H26.5728C26.5728 22.5416 27.0511 30.9174 22.468 36.729Z" fill="#FED130"/>
<path d="M29.4272 22.5416H28H26.5729C26.5729 22.5416 26.6469 23.8421 26.4565 25.7735C26.0934 29.4551 27.0067 33.169 29.1613 36.1761C29.295 36.3627 29.4335 36.5472 29.5769 36.729H33.532C28.949 30.9174 29.4272 22.5416 29.4272 22.5416Z" fill="#F7BC14"/>
<path d="M19.6542 7.68896V15.0291C19.6542 19.3717 21.7181 23.4559 25.2144 26.0317C26.871 27.2521 29.1291 27.2521 30.7857 26.0317C34.2819 23.456 36.3459 19.3717 36.3459 15.0291V7.68896H19.6542Z" fill="#FED130"/>
<path d="M32.372 7.68896V15.0291C32.372 19.3717 30.3081 23.4559 26.8119 26.0317C26.5583 26.2185 26.2905 26.3764 26.0131 26.506C27.5481 27.2232 29.3826 27.0654 30.7856 26.0317C34.2818 23.456 36.3458 19.3717 36.3458 15.0291V7.68896H32.372Z" fill="#F7BC14"/>
<path d="M36.9437 8.83548H19.0563C18.7867 8.83548 18.5681 8.61694 18.5681 8.34734V6.32444C18.5681 6.05484 18.7867 5.8363 19.0563 5.8363H36.9437C37.2133 5.8363 37.4319 6.05484 37.4319 6.32444V8.34734C37.4318 8.61694 37.2132 8.83548 36.9437 8.83548Z" fill="#FFB125"/>
<path d="M36.9438 5.83643H33.4581V8.83549H36.9438C37.2134 8.83549 37.4318 8.61696 37.4318 8.34735V6.32446C37.4318 6.05496 37.2133 5.83643 36.9438 5.83643Z" fill="#FF901D"/>
<path d="M37.491 40.2761H18.5839C18.3098 40.2761 18.1196 40.0031 18.2146 39.746L19.6186 35.9415C19.6757 35.7868 19.8231 35.6841 19.988 35.6841H36.0869C36.2517 35.6841 36.3992 35.7868 36.4562 35.9415L37.8603 39.746C37.9553 40.0031 37.7651 40.2761 37.491 40.2761Z" fill="#FFB125"/>
<path d="M37.8605 39.746L36.4564 35.9415C36.3992 35.7868 36.2519 35.6841 36.0869 35.6841H32.2469L33.9417 40.2761H37.491C37.7651 40.2761 37.9553 40.0031 37.8605 39.746Z" fill="#FF901D"/>
</svg>
