<svg width="44" height="48" viewBox="0 0 44 48" fill="none" xmlns="http://www.w3.org/2000/svg">
<path d="M21.9577 37.8616C32.4129 37.8616 40.8885 29.386 40.8885 18.9308C40.8885 8.47561 32.4129 0 21.9577 0C11.5025 0 3.02688 8.47561 3.02688 18.9308C3.02688 29.386 11.5025 37.8616 21.9577 37.8616Z" fill="#FFD15C"/>
<path d="M6.62166 30.0059L0.108032 41.2968L7.71039 40.8932L11.1643 47.679L17.1899 37.2328C12.8725 36.1159 9.16516 33.5161 6.62166 30.0059Z" fill="#40596B"/>
<path d="M37.3314 29.9495C34.8067 33.4691 31.0994 36.0783 26.7914 37.2139L32.8357 47.6789L36.2896 40.8931L43.892 41.2967L37.3314 29.9495Z" fill="#40596B"/>
<path d="M21.9579 32.6526C29.5362 32.6526 35.6796 26.5092 35.6796 18.9308C35.6796 11.3525 29.5362 5.20905 21.9579 5.20905C14.3795 5.20905 8.23608 11.3525 8.23608 18.9308C8.23608 26.5092 14.3795 32.6526 21.9579 32.6526Z" fill="#F5891B"/>
<path d="M31.3621 17.4479C31.7844 17.035 31.5498 16.3123 30.9679 16.2278L25.5524 15.4394C25.3177 15.4019 25.1206 15.2611 25.0174 15.0452L22.5959 10.1365C22.3331 9.60155 21.5728 9.60155 21.3101 10.1365L18.8979 15.0452C18.7947 15.2517 18.5882 15.4019 18.363 15.4394L12.9475 16.2278C12.3656 16.3123 12.1309 17.035 12.5533 17.4479L16.4671 21.2679C16.636 21.4368 16.7111 21.6715 16.6736 21.8967L15.7538 27.2841C15.6505 27.866 16.27 28.3165 16.7956 28.0349L21.6385 25.4914C21.845 25.3788 22.0984 25.3788 22.3049 25.4914L27.1479 28.0349C27.6735 28.3071 28.2836 27.866 28.1897 27.2841L27.2605 21.8967C27.223 21.6621 27.2981 21.4274 27.467 21.2679L31.3621 17.4479Z" fill="white"/>
</svg>
